<svg version="1.1" id="Layer_1" xmlns="http://www.w3.org/2000/svg" xmlns:xlink="http://www.w3.org/1999/xlink" x="0px" y="0px"
	 width="100%" viewBox="0 0 512 512" enable-background="new 0 0 512 512" xml:space="preserve">
<path fill="#E04006" opacity="1.000000" stroke="none" 
	d="
M237.000000,1.000000 
	C250.687561,1.000000 264.375122,1.000000 278.384460,1.418445 
	C279.552460,2.220741 280.371857,2.854613 281.249176,2.948793 
	C288.110962,3.685382 295.013214,4.100538 301.847839,5.023275 
	C324.371582,8.064198 345.738007,15.110863 366.219299,24.733768 
	C386.308533,34.172440 405.613037,45.089436 421.848236,60.466545 
	C434.773895,72.709045 448.038330,84.809761 459.395264,98.437706 
	C473.445129,115.297058 484.386414,134.413162 492.980682,154.761276 
	C502.188080,176.560989 509.281372,198.883469 511.086090,222.650085 
	C511.148895,223.477066 512.336609,224.218628 513.000000,225.000000 
	C513.000000,245.687561 513.000000,266.375122 512.585327,287.379822 
	C511.781891,288.707611 511.166565,289.691071 511.041412,290.733398 
	C510.279144,297.083954 510.214630,303.577545 508.841827,309.785583 
	C501.803711,341.613220 490.241791,371.594452 471.822510,398.737183 
	C459.843384,416.389679 446.369629,432.707520 429.984924,446.440247 
	C420.316284,454.543976 410.913605,463.178497 400.346680,469.942291 
	C387.454895,478.194244 373.783386,485.415894 359.883148,491.862915 
	C335.679871,503.088654 310.219482,510.037537 283.353668,511.081268 
	C282.212677,511.125580 281.116882,512.333923 280.000000,513.000000 
	C265.312439,513.000000 250.624878,513.000000 235.617981,512.583740 
	C234.453552,511.782104 233.637283,511.155090 232.758743,511.050354 
	C226.567429,510.312286 220.343643,509.826813 214.166763,508.990845 
	C190.659561,505.809326 168.289062,498.567200 147.038010,488.335602 
	C128.438217,479.380493 110.470306,469.001953 95.336243,454.700836 
	C82.037170,442.133698 68.365532,429.728363 56.707794,415.713287 
	C40.754948,396.534546 28.910528,374.577240 19.665720,351.296692 
	C9.221238,324.995056 3.648815,297.704285 3.095183,269.463501 
	C2.858212,257.375519 3.758713,245.268829 3.974073,233.167648 
	C4.283000,215.808960 8.138108,199.118835 12.960920,182.559677 
	C18.746540,162.694702 26.479229,143.604935 37.599319,126.201302 
	C45.423031,113.956734 54.078125,102.072548 63.659016,91.166901 
	C74.457024,78.875854 85.927498,66.915993 98.514175,56.517147 
	C117.095482,41.165657 137.831940,28.900087 160.476089,20.157698 
	C184.076065,11.046288 208.063919,3.663031 233.641693,2.917203 
	C234.778809,2.884046 235.881348,1.666087 237.000000,1.000000 
M352.316742,76.072540 
	C347.878387,74.048531 343.432831,72.040176 339.002899,69.997932 
	C313.238373,58.120277 285.932495,53.310287 257.809814,53.136898 
	C244.518097,53.054951 231.237259,54.023712 218.080124,56.869518 
	C195.840210,61.679874 174.895157,69.513924 155.341400,81.136543 
	C136.709854,92.210991 120.103386,105.756279 105.662239,121.904671 
	C101.513374,126.544022 97.244125,131.229691 93.997231,136.490997 
	C86.198227,149.128586 77.732483,161.581177 71.851974,175.114822 
	C65.524025,189.678238 61.443504,205.278244 57.113148,220.632065 
	C53.094147,234.881943 55.544056,249.655792 54.995895,264.192291 
	C54.420708,279.445679 56.639751,294.176178 60.712044,308.988678 
	C69.993210,342.747864 86.485016,372.362030 110.440712,397.531189 
	C120.333992,407.925629 132.210266,416.559998 143.771454,425.210663 
	C162.575668,439.280975 183.933746,448.368530 206.443253,454.648987 
	C218.785980,458.092743 231.299744,460.719666 244.339981,460.093170 
	C254.149277,459.621918 264.019135,460.386139 273.825348,459.884186 
	C282.482483,459.441010 291.235718,458.695740 299.692322,456.891968 
	C336.702545,448.997711 369.329407,432.031860 396.834167,406.232727 
	C408.142456,395.625702 417.736633,382.983582 426.986572,370.438477 
	C440.703705,351.834717 449.614929,330.702820 455.699921,308.467102 
	C459.127197,295.943176 461.662903,283.264984 461.110077,270.057739 
	C460.594849,257.747742 461.002167,245.399200 460.996735,233.067627 
	C460.996155,231.735184 461.145020,230.365540 460.897369,229.075974 
	C457.627808,212.048264 453.091492,195.430084 446.246185,179.412277 
	C434.682281,152.353226 418.740417,128.558533 397.111633,108.383789 
	C383.658875,95.835449 368.694550,85.697289 352.316742,76.072540 
z"/>
<path fill="#000000" opacity="1.000000" stroke="none" 
	d="
M236.531342,1.000000 
	C235.881348,1.666087 234.778809,2.884046 233.641693,2.917203 
	C208.063919,3.663031 184.076065,11.046288 160.476089,20.157698 
	C137.831940,28.900087 117.095482,41.165657 98.514175,56.517147 
	C85.927498,66.915993 74.457024,78.875854 63.659016,91.166901 
	C54.078125,102.072548 45.423031,113.956734 37.599319,126.201302 
	C26.479229,143.604935 18.746540,162.694702 12.960920,182.559677 
	C8.138108,199.118835 4.283000,215.808960 3.974073,233.167648 
	C3.758713,245.268829 2.858212,257.375519 3.095183,269.463501 
	C3.648815,297.704285 9.221238,324.995056 19.665720,351.296692 
	C28.910528,374.577240 40.754948,396.534546 56.707794,415.713287 
	C68.365532,429.728363 82.037170,442.133698 95.336243,454.700836 
	C110.470306,469.001953 128.438217,479.380493 147.038010,488.335602 
	C168.289062,498.567200 190.659561,505.809326 214.166763,508.990845 
	C220.343643,509.826813 226.567429,510.312286 232.758743,511.050354 
	C233.637283,511.155090 234.453552,511.782104 235.149323,512.583740 
	C157.034760,513.000000 79.069511,513.000000 1.052136,513.000000 
	C1.052136,342.444153 1.052136,171.888290 1.052136,1.000000 
	C79.353912,1.000000 157.708298,1.000000 236.531342,1.000000 
z"/>
<path fill="#000000" opacity="1.000000" stroke="none" 
	d="
M513.000000,224.531342 
	C512.336609,224.218628 511.148895,223.477066 511.086090,222.650085 
	C509.281372,198.883469 502.188080,176.560989 492.980682,154.761276 
	C484.386414,134.413162 473.445129,115.297058 459.395264,98.437706 
	C448.038330,84.809761 434.773895,72.709045 421.848236,60.466545 
	C405.613037,45.089436 386.308533,34.172440 366.219299,24.733768 
	C345.738007,15.110863 324.371582,8.064198 301.847839,5.023275 
	C295.013214,4.100538 288.110962,3.685382 281.249176,2.948793 
	C280.371857,2.854613 279.552460,2.220741 278.853088,1.418445 
	C356.925446,1.000000 434.850861,1.000000 513.000000,1.000000 
	C513.000000,75.354080 513.000000,149.708374 513.000000,224.531342 
z"/>
<path fill="#000000" opacity="1.000000" stroke="none" 
	d="
M280.468658,513.000000 
	C281.116882,512.333923 282.212677,511.125580 283.353668,511.081268 
	C310.219482,510.037537 335.679871,503.088654 359.883148,491.862915 
	C373.783386,485.415894 387.454895,478.194244 400.346680,469.942291 
	C410.913605,463.178497 420.316284,454.543976 429.984924,446.440247 
	C446.369629,432.707520 459.843384,416.389679 471.822510,398.737183 
	C490.241791,371.594452 501.803711,341.613220 508.841827,309.785583 
	C510.214630,303.577545 510.279144,297.083954 511.041412,290.733398 
	C511.166565,289.691071 511.781891,288.707611 512.585327,287.848480 
	C513.000000,362.928314 513.000000,437.856598 513.000000,513.000000 
	C435.645905,513.000000 358.291626,513.000000 280.468658,513.000000 
z"/>
<path fill="#000000" opacity="1.000000" stroke="none" 
	d="
M352.639526,76.268906 
	C368.694550,85.697289 383.658875,95.835449 397.111633,108.383789 
	C418.740417,128.558533 434.682281,152.353226 446.246185,179.412277 
	C453.091492,195.430084 457.627808,212.048264 460.897369,229.075974 
	C461.145020,230.365540 460.996155,231.735184 460.996735,233.067627 
	C461.002167,245.399200 460.594849,257.747742 461.110077,270.057739 
	C461.662903,283.264984 459.127197,295.943176 455.699921,308.467102 
	C449.614929,330.702820 440.703705,351.834717 426.986572,370.438477 
	C417.736633,382.983582 408.142456,395.625702 396.834167,406.232727 
	C369.329407,432.031860 336.702545,448.997711 299.692322,456.891968 
	C291.235718,458.695740 282.482483,459.441010 273.825348,459.884186 
	C264.019135,460.386139 254.149277,459.621918 244.339981,460.093170 
	C231.299744,460.719666 218.785980,458.092743 206.443253,454.648987 
	C183.933746,448.368530 162.575668,439.280975 143.771454,425.210663 
	C132.210266,416.559998 120.333992,407.925629 110.440712,397.531189 
	C86.485016,372.362030 69.993210,342.747864 60.712044,308.988678 
	C56.639751,294.176178 54.420708,279.445679 54.995895,264.192291 
	C55.544056,249.655792 53.094147,234.881943 57.113148,220.632065 
	C61.443504,205.278244 65.524025,189.678238 71.851974,175.114822 
	C77.732483,161.581177 86.198227,149.128586 93.997231,136.490997 
	C97.244125,131.229691 101.513374,126.544022 105.662239,121.904671 
	C120.103386,105.756279 136.709854,92.210991 155.341400,81.136543 
	C174.895157,69.513924 195.840210,61.679874 218.080124,56.869518 
	C231.237259,54.023712 244.518097,53.054951 257.809814,53.136898 
	C285.932495,53.310287 313.238373,58.120277 339.002899,69.997932 
	C343.432831,72.040176 347.878387,74.048531 352.639526,76.268906 
M180.931168,134.411636 
	C178.386292,131.267334 176.062134,131.294479 173.133011,134.268982 
	C159.920074,147.686600 146.595795,160.995911 133.190674,174.221680 
	C130.756638,176.623154 130.564240,178.175278 133.105087,180.697052 
	C155.342819,202.767899 177.425369,224.995071 199.647720,247.081543 
	C204.261765,251.667404 209.264465,255.862244 214.199005,260.337921 
	C187.000229,287.524078 160.406601,314.192413 133.665115,340.711700 
	C130.705521,343.646698 130.656723,345.354065 133.654510,348.284729 
	C146.881393,361.215363 159.943436,374.317444 172.904877,387.514801 
	C175.946655,390.611969 178.080734,390.598907 181.105179,387.504181 
	C192.053604,376.301086 202.971756,365.050140 214.337891,354.277985 
	C230.278717,339.170074 246.610123,324.474274 262.774445,309.602234 
	C262.962799,309.659210 265.007874,312.449158 267.421661,314.871704 
	C291.535645,339.073486 315.759735,363.165771 339.810577,387.429901 
	C343.126282,390.775024 345.263885,390.414886 348.365631,387.237335 
	C359.656738,375.670288 371.174286,364.324249 382.605713,352.894135 
	C391.000519,344.500336 391.000305,344.499512 382.757294,336.257660 
	C357.541931,311.046051 332.326294,285.834717 306.804840,260.317383 
	C310.920349,256.673859 315.061768,253.358612 318.801239,249.639267 
	C341.724548,226.839447 364.514221,203.905075 387.475311,181.143524 
	C390.244812,178.398071 390.448273,176.756042 387.558136,173.924530 
	C373.749725,160.396011 360.156311,146.648163 346.469788,132.994965 
	C345.686127,132.213226 344.755585,131.578735 343.250549,130.351517 
	C315.324921,158.280380 287.561096,186.047394 260.022064,213.589584 
	C233.867279,187.417725 207.649292,161.182617 180.931168,134.411636 
z"/>
<path fill="#E04006" opacity="1.000000" stroke="none" 
	d="
M181.181244,134.679581 
	C207.649292,161.182617 233.867279,187.417725 260.022064,213.589584 
	C287.561096,186.047394 315.324921,158.280380 343.250549,130.351517 
	C344.755585,131.578735 345.686127,132.213226 346.469788,132.994965 
	C360.156311,146.648163 373.749725,160.396011 387.558136,173.924530 
	C390.448273,176.756042 390.244812,178.398071 387.475311,181.143524 
	C364.514221,203.905075 341.724548,226.839447 318.801239,249.639267 
	C315.061768,253.358612 310.920349,256.673859 306.804840,260.317383 
	C332.326294,285.834717 357.541931,311.046051 382.757294,336.257660 
	C391.000305,344.499512 391.000519,344.500336 382.605713,352.894135 
	C371.174286,364.324249 359.656738,375.670288 348.365631,387.237335 
	C345.263885,390.414886 343.126282,390.775024 339.810577,387.429901 
	C315.759735,363.165771 291.535645,339.073486 267.421661,314.871704 
	C265.007874,312.449158 262.962799,309.659210 262.774445,309.602234 
	C246.610123,324.474274 230.278717,339.170074 214.337891,354.277985 
	C202.971756,365.050140 192.053604,376.301086 181.105179,387.504181 
	C178.080734,390.598907 175.946655,390.611969 172.904877,387.514801 
	C159.943436,374.317444 146.881393,361.215363 133.654510,348.284729 
	C130.656723,345.354065 130.705521,343.646698 133.665115,340.711700 
	C160.406601,314.192413 187.000229,287.524078 214.199005,260.337921 
	C209.264465,255.862244 204.261765,251.667404 199.647720,247.081543 
	C177.425369,224.995071 155.342819,202.767899 133.105087,180.697052 
	C130.564240,178.175278 130.756638,176.623154 133.190674,174.221680 
	C146.595795,160.995911 159.920074,147.686600 173.133011,134.268982 
	C176.062134,131.294479 178.386292,131.267334 181.181244,134.679581 
z"/>
</svg>